<?xml version="1.0" encoding="UTF-8" standalone="no"?>
<svg
   xmlns:dc="http://purl.org/dc/elements/1.1/"
   xmlns:cc="http://creativecommons.org/ns#"
   xmlns:rdf="http://www.w3.org/1999/02/22-rdf-syntax-ns#"
   xmlns:svg="http://www.w3.org/2000/svg"
   xmlns="http://www.w3.org/2000/svg"
   xmlns:sodipodi="http://sodipodi.sourceforge.net/DTD/sodipodi-0.dtd"
   xmlns:inkscape="http://www.inkscape.org/namespaces/inkscape"
   width="210mm"
   height="297mm"
   viewBox="0 0 210 297"
   version="1.1"
   id="svg8"
   inkscape:version="1.0 (4035a4fb49, 2020-05-01)"
   sodipodi:docname="mm.svg">
  <defs
     id="defs2" />
  <sodipodi:namedview
     id="base"
     pagecolor="#ffffff"
     bordercolor="#666666"
     borderopacity="1.0"
     inkscape:pageopacity="0.0"
     inkscape:pageshadow="2"
     inkscape:zoom="1.4"
     inkscape:cx="279.83413"
     inkscape:cy="622.25995"
     inkscape:document-units="mm"
     inkscape:current-layer="layer1"
     inkscape:document-rotation="0"
     showgrid="false"
     inkscape:window-width="2560"
     inkscape:window-height="1387"
     inkscape:window-x="-8"
     inkscape:window-y="-8"
     inkscape:window-maximized="1" />
  <metadata
     id="metadata5">
    <rdf:RDF>
      <cc:Work
         rdf:about="">
        <dc:format>image/svg+xml</dc:format>
        <dc:type
           rdf:resource="http://purl.org/dc/dcmitype/StillImage" />
        <dc:title />
      </cc:Work>
    </rdf:RDF>
  </metadata>
  <g
     inkscape:label="Layer 1"
     inkscape:groupmode="layer"
     id="layer1">
    <path
       style="fill:#000000;stroke-width:1.18975"
       d="M 57.467804,202.04125 V 151.9819 l -7.138482,-6.8391 v 49.75587 c -5.552157,-5.50961 -11.104308,-11.01922 -16.65646,-16.52883 v -51.31239 c 3.797782,-3.74067 7.595559,-7.48134 11.393336,-11.22201 4.211634,4.21355 8.752187,8.96709 12.378313,12.93826 0.04638,-9.03052 0.02329,-16.46955 0.02329,-25.64782 1.620141,-1.46621 3.240282,-2.93241 4.860423,-4.39862 10.673905,10.65195 21.347822,21.30388 32.021738,31.95582 10.673918,-10.65193 21.347828,-21.30388 32.021738,-31.95582 1.62014,1.46621 3.24028,2.93241 4.86042,4.39862 v 25.12949 c 4.19153,-4.13946 8.38305,-8.27892 12.57458,-12.41838 3.74012,3.79721 7.48024,7.59443 11.22036,11.39165 v 51.1412 c -5.55215,5.50961 -11.10431,11.01922 -16.65646,16.52883 v -49.88144 c -14.66395,14.64789 -29.32791,29.29577 -43.991862,43.94365 -4.371999,-4.31769 -8.743996,-8.63537 -13.115994,-12.95306 v -23.79495 c 4.393051,4.33531 8.786101,8.67063 13.179152,13.00594 6.711264,-6.82984 13.422514,-13.65968 20.133764,-20.48953 0.003,-3.46244 -0.008,-7.30263 0.011,-10.40487 -6.95542,6.94279 -14.23545,14.16482 -20.238342,20.1325 -6.731013,-6.69605 -13.462026,-13.39209 -20.193039,-20.08814 -0.208626,27.9531 -0.417254,55.90619 -0.625882,83.85929 -5.353856,-5.39561 -10.70772,-10.79121 -16.061583,-16.18681 z m 57.107856,-22.60929 c 5.55215,-5.50961 11.10431,-11.01922 16.65646,-16.52883 v 39.26165 c -5.55215,5.50961 -11.10431,11.01922 -16.65646,16.52883 z"
       id="path849"
       sodipodi:nodetypes="ccccccccccccccccccccccccccccccccccc" />
  </g>
</svg>
